<svg id="Capa_1" enable-background="new 0 0 512 512" height="512" viewBox="0 0 512 512" width="512" xmlns="http://www.w3.org/2000/svg"><g><path d="m338.517 320.309-10.394-93.729h.39v-66.316c0-79.332-63.921-143.724-143.067-144.509-79.146.784-143.067 65.176-143.067 144.508v66.316l-10.393 93.729c-4.469 40.299 27.078 75.538 67.625 75.538h171.281c40.546.001 72.094-35.238 67.625-75.537z" fill="#dc8758"/><path d="m209.567 508.147h121.549v-86.042c0-28.95-21.531-52.417-48.09-52.417h-178.05-14.221c-26.559 0-48.09 23.468-48.09 52.417v89.895h163.049z" fill="#5f99d7"/><path d="m209.567 508.147h121.549v-86.042c0-28.95-21.531-52.417-48.09-52.417h-113.697v135.129c0 3.967 3.216 7.183 7.183 7.183h29.202z" fill="#3c87d0"/><path d="m341.437 320.309-10.394-93.729h.39v-66.316c0-79.82-64.707-144.528-144.527-144.528-5.43 0-10.787.31-16.061.893 72.26 7.991 128.466 69.244 128.466 143.635v66.316h-.39l10.394 93.729c4.469 40.299-27.079 75.538-67.625 75.538h32.122c40.546 0 72.094-35.239 67.625-75.538z" fill="#d77f4a"/><path d="m144.033 253.256-5.528 98.77v17.673c0 26.722 21.663 48.385 48.386 48.385 26.723 0 48.385-21.663 48.385-48.385v-19.192l-7.012-97.25h-84.231z" fill="#ffb09e"/><path d="m138.505 352.025c14.286 6.449 30.105 10.104 46.763 10.254 17.928-.161 34.889-4.376 50.008-11.773v-100.17h-96.771z" fill="#ffa78f"/><path d="m169.329 322.59v92.193c5.446 2.123 11.364 3.301 17.561 3.301 26.723 0 48.385-21.663 48.385-48.385v-19.192l-2.531-35.1h-56.233c-3.966 0-7.182 3.216-7.182 7.183z" fill="#ffa78f"/><path d="m188.441 167.931c-30.913 0-55.973-25.805-55.973-57.637v-32.147c-37.148 19.435-62.503 58.338-62.503 103.168v41.248c0 64.268 52.099 116.367 116.367 116.367h.792c64.268 0 116.367-52.1 116.367-116.367v-41.248c0-4.528-.268-8.992-.771-13.385h-114.279z" fill="#ffcebf"/><g><path d="m186.712 287.28c-17.936 0-32.527-14.592-32.527-32.527 0-4.267 3.459-7.726 7.726-7.726s7.726 3.459 7.726 7.726c0 9.415 7.66 17.074 17.074 17.074s17.074-7.659 17.074-17.074c0-4.267 3.459-7.726 7.726-7.726 4.268 0 7.726 3.459 7.726 7.726.002 17.936-14.59 32.527-32.525 32.527z" fill="#ffa799"/></g><g><path d="m243.713 228.896c-4.268 0-7.726-3.459-7.726-7.726v-21.505c0-4.267 3.459-7.726 7.726-7.726h12.374c4.268 0 7.726 3.459 7.726 7.726s-3.459 7.726-7.726 7.726h-4.648v13.778c0 4.268-3.459 7.727-7.726 7.727z" fill="#5a5a5a"/></g><g><path d="m129.71 228.896c-4.268 0-7.726-3.459-7.726-7.726v-13.778h-4.647c-4.268 0-7.726-3.459-7.726-7.726s3.459-7.726 7.726-7.726h12.373c4.268 0 7.726 3.459 7.726 7.726v21.505c0 4.266-3.459 7.725-7.726 7.725z" fill="#5a5a5a"/></g><path d="m124.698 239.067c-6.418 0-11.178 0-17.699 0-4.396 0-7.96 3.564-7.96 7.96s3.564 7.96 7.96 7.96h17.699c4.396 0 7.96-3.564 7.96-7.96s-3.564-7.96-7.96-7.96z" fill="#fe8f83"/><path d="m266.425 239.067c-6.418 0-11.178 0-17.699 0-4.396 0-7.96 3.564-7.96 7.96s3.564 7.96 7.96 7.96h17.699c4.396 0 7.96-3.564 7.96-7.96s-3.564-7.96-7.96-7.96z" fill="#fe8f83"/><path d="m464.877 0h-21.804c-2.276 0-4.121 1.845-4.121 4.121v155.286h30.046v-155.286c0-2.276-1.845-4.121-4.121-4.121z" fill="#9c9c9c"/><path d="m467.797 0h-20.441c2.276 0 4.121 1.845 4.121 4.121v155.286h20.441v-155.286c0-2.276-1.845-4.121-4.121-4.121z" fill="#838383"/><path d="m453.975 316.414c24.357-.773 43.868-20.747 43.868-45.291 0-7.374 0-64.52 0-74.378h-87.736v74.378c0 24.544 19.511 44.518 43.868 45.291z" fill="#cecece"/><path d="m453.975 123.143c-24.357.773-43.868 20.747-43.868 45.291v28.31h87.736v-28.31c0-24.544-19.511-44.518-43.868-45.291z" fill="#acacac"/><path d="m480.322 196.745v74.378c0 21.518-14.998 39.52-35.107 44.156 3.286.758 6.704 1.172 10.221 1.172 25.034 0 45.328-20.294 45.328-45.328 0-7.374 0-64.52 0-74.378z" fill="#bfbfbf"/><g fill="#9c9c9c"><path d="m434.145 245.372h-24.037v15.453h24.037c4.268 0 7.726-3.459 7.726-7.726s-3.459-7.727-7.726-7.727z"/><path d="m434.145 216.171h-24.037v15.453h24.037c4.268 0 7.726-3.459 7.726-7.726s-3.459-7.727-7.726-7.727z"/><path d="m455.435 123.107c-3.517 0-6.935.414-10.222 1.172 20.109 4.637 35.106 22.639 35.106 44.156v28.31h20.443v-28.31c.001-25.035-20.293-45.328-45.327-45.328z"/></g><path d="m480.322 196.745v74.378c0 21.518-14.998 39.52-35.107 44.156 3.286.758 6.704 1.172 10.221 1.172 25.034 0 45.328-20.294 45.328-45.328 0-7.374 0-64.52 0-74.378z" fill="#bfbfbf"/><path d="m500.763 245.372h-24.038c-4.268 0-7.726 3.459-7.726 7.726s3.459 7.726 7.726 7.726h24.038c0-4.369 0-9.712 0-15.452z" fill="#9c9c9c"/><path d="m500.763 216.171h-24.038c-4.268 0-7.726 3.459-7.726 7.726s3.459 7.726 7.726 7.726h24.038c0-5.342 0-10.63 0-15.452z" fill="#9c9c9c"/><path d="m480.322 260.825h20.441c0-4.37 0-9.714 0-15.453h-20.441z" fill="#838383"/><path d="m480.322 231.623h20.441c0-5.343 0-10.63 0-15.453h-20.441z" fill="#838383"/><path d="m300.57 160.626c-4.158-80.897-57.484-144.89-122.668-144.89-18.302 0-35.667 5.052-51.275 14.099v86.299c0 31.832 25.06 57.638 55.973 57.638h117.97z" fill="#dc8758"/><g><path d="m302.72 167.931h-26.282c.503 4.393.771 8.857.771 13.385v41.248c0 59.96-45.351 109.321-103.622 115.67 4.186.456 8.437.698 12.745.698h.792c64.268 0 116.367-52.1 116.367-116.367v-41.248c0-4.529-.268-8.994-.771-13.386z" fill="#ffb09e"/></g><path d="m274.289 167.931h-85.848c-30.913 0-55.973-25.805-55.973-57.637v-32.147c-12.125 6.344-22.982 14.772-32.122 24.792v13.194c0 31.832 25.06 57.638 55.973 57.638h117.97z" fill="#ffb09e"/><path d="m300.57 160.626c-4.158-80.897-57.484-144.89-122.668-144.89-18.302 0-35.667 5.052-51.275 14.099v86.299c0 31.832 25.06 57.638 55.973 57.638h117.97z" fill="#dc8758"/><path d="m383.826 504.817v-182.227c0-3.967-3.216-7.183-7.183-7.183h-170.929c-3.967 0-7.183 3.216-7.183 7.183v182.227c0 3.967 3.216 7.183 7.183 7.183h170.928c3.967 0 7.184-3.216 7.184-7.183z" fill="#d5e3f4"/><path d="m379.563 315.407h-29.202c3.967 0 7.183 3.216 7.183 7.183v182.227c0 3.967-3.216 7.183-7.183 7.183h29.202c3.967 0 7.183-3.216 7.183-7.183v-182.227c0-3.967-3.216-7.183-7.183-7.183z" fill="#b3ceec"/><g fill="#bfbfbf"><path d="m248.521 38.087-2.393-12.074-49.105-15.796-24.313-1.55c-3.438.327-6.881.758-10.327 1.317l-.501.078c-13.196 2.184-26.062 6.116-38.334 11.73-.062.027-.128.057-.194.089-49.019 22.547-82.721 69.817-87.964 123.376-.025.251-.037.501-.037.753v53.01c0 4.268 3.459 7.726 7.726 7.726s7.726-3.459 7.726-7.726v-52.627c4.825-47.918 35.014-90.186 78.972-110.46.047-.021.098-.044.136-.061 10.983-5.041 22.588-8.596 34.484-10.564l.446-.068c29.114-4.728 58.06-.173 83.678 12.847z"/><path d="m323.007 175.557v23.462c0 4.268 3.459 7.726 7.726 7.726s7.726-3.459 7.726-7.726v-27.656c-5.73 1.564-11.123 3.029-15.452 4.194z"/></g><g><path d="m338.423 145.257c-4.129-42.178-24.938-79.677-58.594-105.591-30.953-23.832-68.647-34.658-107.119-31.001 27.221 2.631 53.237 12.63 75.812 29.421 7.614 3.87 14.938 8.478 21.88 13.824 30.141 23.206 48.813 56.746 52.606 94.481v52.627c0 4.268 3.459 7.726 7.726 7.726s7.726-3.459 7.726-7.726v-53.01c0-.25-.012-.501-.037-.751z" fill="#acacac"/></g><path d="m359.299 236.379v-62.268c0-15.52-12.581-28.102-28.102-28.102h-19.208c-6.306 0-11.419 5.113-11.419 11.419v95.633c0 6.306 5.112 11.419 11.419 11.419h19.208c15.52 0 28.102-12.581 28.102-28.101z" fill="#9c9c9c"/><path d="m334.117 146.01h-22.128c-.937 0-1.843.125-2.714.339 13.449 2.095 23.742 13.726 23.742 27.763v62.268c0 14.037-10.293 25.668-23.742 27.763.871.213 1.777.338 2.714.338h22.128c15.52 0 28.101-12.581 28.101-28.101v-62.268c.001-15.521-12.581-28.102-28.101-28.102z" fill="#838383"/><path d="m61.467 264.481h-22.129c-15.52 0-28.101-12.581-28.101-28.101v-62.268c0-15.52 12.581-28.101 28.101-28.101h22.128c6.306 0 11.419 5.112 11.419 11.419v95.634c0 6.304-5.112 11.417-11.418 11.417z" fill="#9c9c9c"/></g></svg>