<svg id="Layer_1" enable-background="new 0 0 512 512" height="512" viewBox="0 0 512 512" width="512" xmlns="http://www.w3.org/2000/svg"><path d="m106.652 243.142h-64.608c-11.338 0-20.614 9.271-20.614 20.603v6.271c0 11.331 9.276 20.604 20.614 20.604h64.608z" fill="#bb5d4c"/><path d="m53.987 270.016v-6.271c0-11.332 9.276-20.603 20.613-20.603h-32.556c-11.338 0-20.614 9.271-20.614 20.603v6.271c0 11.331 9.276 20.604 20.614 20.604h32.556c-11.337-.001-20.613-9.273-20.613-20.604z" fill="#a64b30"/><path d="m106.652 290.619h-43.339c-11.337 0-20.613 9.271-20.613 20.604v6.271c0 11.332 9.276 20.604 20.613 20.604h43.339z" fill="#a64b30"/><path d="m74.943 317.493v-6.271c0-11.332 9.275-20.604 20.613-20.604h-32.243c-11.337 0-20.613 9.271-20.613 20.604v6.271c0 11.332 9.276 20.604 20.613 20.604h32.243c-11.338 0-20.613-9.272-20.613-20.604z" fill="#8b3d27"/><path d="m124.639 355c.23 1.199.36 2.435.36 3.7v6.271c0 10.81-8.799 19.603-19.613 19.603v2c10.815 0 19.612 8.794 19.612 19.604v6.27c0 10.72-8.656 19.445-19.347 19.59v58.637c0 11.729 9.575 21.326 21.276 21.326h236.837c11.703 0 21.276-9.598 21.276-21.326v-135.675z" fill="#8c9ba7"/><path d="m138.425 490.674v-134.198h-13.562c.083.731.136 1.472.136 2.225v6.271c0 10.81-8.799 19.603-19.613 19.603v2c10.815 0 19.612 8.794 19.612 19.604v6.27c0 10.72-8.656 19.445-19.347 19.59v58.637c0 11.729 9.575 21.326 21.276 21.326h32.774c-11.699-.002-21.276-9.6-21.276-21.328z" fill="#798b97"/><path d="m361.59 307.79c-8.865-14.623-11.228-27.286-7.018-37.637 4.498-11.059 15.491-16.816 21.645-19.265.492-.195 1.008-.295 1.534-.295 1.526 0 2.927.834 3.654 2.176l3.637 6.463v-237.908c0-11.725-9.574-21.324-21.277-21.324h-236.837c-11.701 0-21.276 9.599-21.276 21.324v317.786c9.94.134 18.112 7.688 19.212 17.365h260.178v-10.196z" fill="#c7eefd"/><path d="m326.293 330.78h-56.21c-.081 13.63-11.145 24.695-24.737 24.695s-24.654-11.065-24.735-24.695h-56.211c-14.151 0-25.732 11.558-25.765 25.695h213.423c-.032-14.137-11.613-25.695-25.765-25.695z" fill="#98e5fb"/><path d="m126.928 0c-11.701 0-21.276 9.599-21.276 21.324v317.786c9.94.134 18.112 7.688 19.212 17.365h13.562v-44.558h-6.785c-4.143 0-7.5-3.358-7.5-7.5v-28.845c0-4.143 3.357-7.5 7.5-7.5 3.004 0 5.588 1.77 6.785 4.319v-158.467c-1.197 2.551-3.781 4.32-6.785 4.32-4.143 0-7.5-3.357-7.5-7.5v-28.845c0-4.143 3.357-7.5 7.5-7.5h6.785v-53.075c-.001-11.725 9.576-21.324 21.277-21.324z" fill="#98e5fb"/><ellipse cx="245.346" cy="434.829" fill="#c7eefd" rx="32.722" ry="32.705"/><path d="m238.478 434.829c0-13.474 8.152-25.04 19.795-30.05-3.967-1.707-8.335-2.655-12.927-2.655-18.071 0-32.722 14.643-32.722 32.705 0 18.061 14.65 32.705 32.722 32.705 4.592 0 8.96-.95 12.927-2.656-11.642-5.011-19.795-16.577-19.795-30.049z" fill="#98e5fb"/><path d="m83.053 385.574c-11.338 0-20.613-9.271-20.613-20.603v-6.271c0-11.332 9.275-20.603 20.613-20.603h22.333c11.337 0 20.613 9.271 20.613 20.603v6.271c0 11.332-9.276 20.603-20.613 20.603z" fill="#bb5d4c"/><path d="m86.507 364.971v-6.271c0-11.1 8.904-20.198 19.924-20.568-.347-.018-.693-.035-1.044-.035h-22.334c-11.338 0-20.613 9.271-20.613 20.603v6.271c0 11.332 9.275 20.603 20.613 20.603h22.333c.351 0 .697-.016 1.044-.035-11.019-.37-19.923-9.469-19.923-20.568z" fill="#a64b30"/><path d="m83.053 433.051c-11.337 0-20.613-9.272-20.613-20.604v-6.27c0-11.332 9.276-20.604 20.613-20.604h22.332c11.337 0 20.613 9.272 20.613 20.604v6.27c0 11.332-9.276 20.604-20.613 20.604z" fill="#a64b30"/><path d="m88.38 412.447v-6.27c0-10.715 8.297-19.576 18.784-20.511-.587-.055-1.178-.093-1.778-.093h-22.333c-11.337 0-20.613 9.272-20.613 20.604v6.27c0 11.332 9.276 20.604 20.613 20.604h22.332c.601 0 1.192-.038 1.779-.093-10.488-.935-18.784-9.796-18.784-20.511z" fill="#8b3d27"/><path d="m245.347 86.02c-44.251 0-80.123 16.25-80.123 59.801v43.849c0-43.554 35.872-59.802 80.123-59.802 44.248 0 80.119 16.248 80.119 59.802v-43.85c0-43.55-35.871-59.8-80.119-59.8z" fill="#fda613"/><path d="m197.61 138.566c3.31-33.098 29.579-48.34 63.75-51.774-5.174-.521-10.528-.772-16.013-.772-44.251 0-80.123 16.25-80.123 59.801v43.849c0-25.948 12.736-42.201 32.386-51.104z" fill="#fa8701"/><path d="m254.682 303.698h-18.67c-5.651 0-11.141-.685-16.406-1.942v28.875c0 14.273 11.524 25.845 25.739 25.845s25.741-11.571 25.741-25.845v-28.875c-5.264 1.259-10.753 1.942-16.404 1.942z" fill="#a64b30"/><path d="m245.746 330.631v-26.933h-9.733c-5.651 0-11.141-.685-16.406-1.942v28.875c0 14.273 11.524 25.845 25.739 25.845 4.773 0 9.239-1.309 13.071-3.582-7.582-4.497-12.671-12.782-12.671-22.263z" fill="#8b3d27"/><path d="m166.224 234.754v-40.543h-11.919c-8.13 0-14.726 6.446-14.726 14.397v17.43c0 7.953 6.596 14.4 14.726 14.4h12.175c-.155-1.877-.256-3.768-.256-5.684z" fill="#bb5d4c"/><path d="m336.388 194.211h-11.922v40.543c0 1.916-.101 3.808-.256 5.685h12.178c8.131 0 14.726-6.447 14.726-14.4v-17.43c0-7.952-6.595-14.398-14.726-14.398z" fill="#a64b30"/><path d="m245.347 128.565c-44.251 0-80.123 16.248-80.123 59.802v46.387c0 38.626 31.694 69.944 70.788 69.944h18.67c39.093 0 70.784-31.318 70.784-69.944v-46.387c0-43.553-35.871-59.802-80.119-59.802z" fill="#bb5d4c"/><path d="m189.997 234.754v-46.387c0-39.402 29.36-56.453 67.722-59.347-4.032-.304-8.163-.455-12.371-.455-44.251 0-80.123 16.248-80.123 59.802v46.387c0 38.626 31.694 69.944 70.788 69.944h18.67c1.025 0 2.045-.03 3.059-.076-37.681-1.577-67.745-32.251-67.745-69.868z" fill="#a64b30"/><g fill="#593636"><path d="m252.708 228.504h-9.679c-6.625 0-12.015-5.361-12.015-11.951v-18.383c0-4.143 3.357-7.5 7.5-7.5s7.5 3.357 7.5 7.5v15.334h6.693c4.143 0 7.5 3.357 7.5 7.5.001 4.142-3.357 7.5-7.499 7.5z"/><path d="m202.426 215.667c-4.143 0-7.5-3.357-7.5-7.5v-16.101c0-4.143 3.357-7.5 7.5-7.5s7.5 3.357 7.5 7.5v16.101c0 4.143-3.357 7.5-7.5 7.5z"/><path d="m288.267 215.667c-4.143 0-7.5-3.357-7.5-7.5v-16.101c0-4.143 3.357-7.5 7.5-7.5s7.5 3.357 7.5 7.5v16.101c0 4.143-3.357 7.5-7.5 7.5z"/><path d="m245.428 270.172c-9.004 0-18.016-3.432-24.882-10.295-2.93-2.928-2.931-7.677-.003-10.607 2.929-2.93 7.676-2.933 10.606-.003 7.852 7.849 20.588 7.889 28.394.088 2.929-2.929 7.678-2.928 10.606.003 2.928 2.93 2.927 7.678-.003 10.606-6.807 6.807-15.759 10.208-24.718 10.208z"/></g><path d="m131.64 118.244c-4.143 0-7.5-3.357-7.5-7.5v-28.845c0-4.143 3.357-7.5 7.5-7.5h28.86c4.143 0 7.5 3.357 7.5 7.5s-3.357 7.5-7.5 7.5h-21.36v21.345c0 4.143-3.357 7.5-7.5 7.5z" fill="#fff"/><path d="m359.359 118.244c-4.143 0-7.5-3.357-7.5-7.5v-21.345h-21.359c-4.143 0-7.5-3.357-7.5-7.5s3.357-7.5 7.5-7.5h28.859c4.143 0 7.5 3.357 7.5 7.5v28.845c0 4.143-3.357 7.5-7.5 7.5z" fill="#fff"/><path d="m160.5 311.918h-28.86c-4.143 0-7.5-3.358-7.5-7.5v-28.845c0-4.143 3.357-7.5 7.5-7.5s7.5 3.357 7.5 7.5v21.345h21.36c4.143 0 7.5 3.357 7.5 7.5 0 4.142-3.358 7.5-7.5 7.5z" fill="#fff"/><path d="m360.736 308.31c-5.008-8.26-7.964-15.918-8.877-22.921v11.528h-21.359c-4.143 0-7.5 3.357-7.5 7.5 0 4.142 3.357 7.5 7.5 7.5h28.859c1.126 0 2.19-.254 3.148-.7z" fill="#fff"/><path d="m341.242 448.221c0 1.701-1.391 3.091-3.092 3.091h-26.798c-1.701 0-3.092-1.39-3.092-3.091v-26.784c0-1.7 1.391-3.091 3.092-3.091h26.798c1.701 0 3.092 1.391 3.092 3.091z" fill="#c7eefd"/><path d="m182.517 448.221c0 1.701-1.391 3.091-3.092 3.091h-26.798c-1.7 0-3.092-1.39-3.092-3.091v-26.784c0-1.7 1.392-3.091 3.092-3.091h26.798c1.701 0 3.092 1.391 3.092 3.091z" fill="#c7eefd"/><circle cx="149.84" cy="25.754" fill="#00c184" r="7.73"/><circle cx="174.061" cy="25.754" fill="#596c76" r="7.73"/><path d="m283.828 33.254h-74.209c-4.143 0-7.5-3.357-7.5-7.5s3.357-7.5 7.5-7.5h74.209c4.143 0 7.5 3.357 7.5 7.5s-3.358 7.5-7.5 7.5z" fill="#596c76"/><path d="m488.411 444.632-39.88-39.805c-.895-.892-1.268-2.183-.992-3.415 4.102-18.243 1.766-37.52-6.578-54.278-5.057-10.158-20.357-26.747-20.357-26.747l-38.32-68.094c-.925-1.707-2.69-2.699-4.533-2.699-.636 0-1.281.118-1.904.366-6.301 2.507-17.563 8.416-22.201 19.816-4.335 10.659-1.951 23.621 7.091 38.534l24.306 39.891v115.498c.789.107 1.536.453 2.116 1.031l40.558 40.483c1.391 1.386 3.244 2.15 5.224 2.15 1.978 0 3.832-.765 5.222-2.15l50.25-50.157c2.878-2.874 2.878-7.55-.002-10.424z" fill="#bb5d4c"/><path d="m488.411 444.632-16.452-16.421-33.798 33.735c-1.39 1.386-3.244 2.15-5.222 2.15-1.979 0-3.833-.765-5.224-2.15l-40.558-40.483c-.58-.578-1.327-.924-2.116-1.031v43.268c.789.107 1.536.453 2.116 1.031l40.558 40.483c1.391 1.386 3.244 2.15 5.224 2.15 1.978 0 3.832-.765 5.222-2.15l50.25-50.157c2.88-2.875 2.88-7.551 0-10.425z" fill="#a64b30"/></svg>