<svg width="5900" height="1181" viewBox="0 0 5900 1181" fill="none" xmlns="http://www.w3.org/2000/svg">
<path fill-rule="evenodd" clip-rule="evenodd" d="M925.507 696.398C955.998 639.722 973.299 574.894 973.299 506.023C973.299 283.834 793.229 103.714 571.103 103.714C348.976 103.714 168.906 283.834 168.906 506.023C168.906 566.491 182.242 623.844 206.134 675.296C241.771 510.45 388.398 386.94 563.863 386.94C746.739 386.94 898.288 521.102 925.507 696.398Z" fill="#F7FAFC"/>
<path fill-rule="evenodd" clip-rule="evenodd" d="M571.103 964.656C731.034 964.656 860.684 834.969 860.684 674.993C860.684 515.017 731.034 385.331 571.103 385.331C411.171 385.331 281.521 515.017 281.521 674.993C281.521 834.969 411.171 964.656 571.103 964.656ZM571.103 1077.3C793.229 1077.3 973.299 897.183 973.299 674.993C973.299 452.804 793.229 272.684 571.103 272.684C348.976 272.684 168.906 452.804 168.906 674.993C168.906 897.183 348.976 1077.3 571.103 1077.3Z" fill="#F7FAFC"/>
<ellipse cx="570.266" cy="687.523" rx="321.088" ry="321.178" fill="#F7FAFC"/>
<path d="M195.663 517.318L196.412 687.546H246.558V533.066L195.663 517.318Z" fill="url(#paint0_linear)"/>
<path d="M947.957 517.318L947.209 687.546H897.062V533.066L947.957 517.318Z" fill="url(#paint1_linear)"/>
<path fill-rule="evenodd" clip-rule="evenodd" d="M891.265 552.318C848.524 688.918 721.308 818.133 571.015 818.133C420.722 818.133 293.505 688.918 250.765 552.318C240.798 584.174 235.425 618.068 235.425 653.222C235.425 839.121 385.673 989.821 571.015 989.821C756.357 989.821 906.605 839.121 906.605 653.222C906.605 618.068 901.232 584.174 891.265 552.318Z" fill="url(#paint2_linear)"/>
<path d="M571.81 687.546C613.534 687.546 647.358 653.713 647.358 611.977C647.358 570.242 613.534 536.409 571.81 536.409C530.086 536.409 496.263 570.242 496.263 611.977C496.263 653.713 530.086 687.546 571.81 687.546Z" fill="url(#paint3_radial)"/>
<path fill-rule="evenodd" clip-rule="evenodd" d="M903.26 689.137C931.777 636.195 947.957 575.637 947.957 511.304C947.957 303.752 779.55 135.497 571.81 135.497C364.07 135.497 195.663 303.752 195.663 511.304C195.663 567.788 208.136 621.363 230.48 669.425C263.809 515.439 400.939 400.065 565.039 400.065C736.07 400.065 877.804 525.389 903.26 689.137Z" fill="url(#paint4_linear)"/>
<path fill-rule="evenodd" clip-rule="evenodd" d="M571.81 940.152C721.383 940.152 842.636 818.865 842.636 669.251C842.636 519.636 721.383 398.349 571.81 398.349C422.238 398.349 300.984 519.636 300.984 669.251C300.984 818.865 422.238 940.152 571.81 940.152ZM571.81 1045.5C779.55 1045.5 947.957 877.049 947.957 669.251C947.957 461.452 779.55 292.998 571.81 292.998C364.07 292.998 195.663 461.452 195.663 669.251C195.663 877.049 364.07 1045.5 571.81 1045.5Z" fill="url(#paint5_linear)"/>
<path d="M1465.34 903.578C1416.08 903.578 1372.81 893.767 1335.55 874.146C1298.29 853.891 1269.55 825.725 1249.34 789.646C1229.13 752.935 1219.02 709.894 1219.02 660.524C1219.02 611.154 1229.13 568.429 1249.34 532.351C1269.55 495.64 1298.29 467.473 1335.55 447.852C1372.81 428.23 1416.08 418.419 1465.34 418.419C1514.61 418.419 1557.87 428.23 1595.13 447.852C1632.4 467.473 1661.13 495.64 1681.34 532.351C1701.56 568.429 1711.66 611.154 1711.66 660.524C1711.66 709.894 1701.56 752.935 1681.34 789.646C1661.13 825.725 1632.4 853.891 1595.13 874.146C1557.87 893.767 1514.61 903.578 1465.34 903.578ZM1465.34 794.394C1534.82 794.394 1569.55 749.77 1569.55 660.524C1569.55 615.584 1560.4 582.038 1542.08 559.884C1524.4 537.731 1498.82 526.654 1465.34 526.654C1395.87 526.654 1361.13 571.278 1361.13 660.524C1361.13 749.77 1395.87 794.394 1465.34 794.394Z" fill="#F5F5F5"/>
<path d="M2390.83 418.419C2441.36 418.419 2480.2 433.927 2507.36 464.941C2534.52 495.323 2548.09 545.327 2548.09 614.951V834.27C2548.09 856.423 2541.46 873.196 2528.2 884.589C2514.94 895.983 2497.88 901.679 2477.04 901.679C2456.83 901.679 2439.78 895.983 2425.88 884.589C2411.99 873.196 2405.04 856.423 2405.04 834.27V613.053C2405.04 582.671 2399.67 561.467 2388.93 549.441C2378.83 536.782 2363.04 530.452 2341.57 530.452C2315.04 530.452 2293.88 539.63 2278.09 557.986C2262.3 576.341 2254.41 601.976 2254.41 634.889V834.27C2254.41 856.423 2247.78 873.196 2234.51 884.589C2221.25 895.983 2204.2 901.679 2183.35 901.679C2163.14 901.679 2146.09 895.983 2132.19 884.589C2118.3 873.196 2111.35 856.423 2111.35 834.27V613.053C2111.35 582.671 2105.98 561.467 2095.25 549.441C2085.14 536.782 2069.35 530.452 2047.88 530.452C2021.35 530.452 2000.19 539.63 1984.4 557.986C1968.61 576.341 1960.72 601.976 1960.72 634.889V834.27C1960.72 856.423 1953.77 873.196 1939.88 884.589C1926.61 895.983 1909.88 901.679 1889.66 901.679C1869.45 901.679 1852.4 895.983 1838.51 884.589C1824.61 873.196 1817.66 856.423 1817.66 834.27V485.829C1817.66 464.941 1824.61 448.801 1838.51 437.408C1853.03 426.015 1870.4 420.318 1890.61 420.318C1909.56 420.318 1925.35 426.015 1937.98 437.408C1950.61 448.168 1956.93 463.359 1956.93 482.981V492.475C1972.09 468.423 1991.67 450.067 2015.67 437.408C2040.3 424.749 2068.09 418.419 2099.04 418.419C2132.51 418.419 2160.62 425.382 2183.35 439.307C2206.72 452.599 2224.72 474.436 2237.35 504.818C2251.88 478.233 2272.41 457.346 2298.93 442.155C2326.09 426.331 2356.72 418.419 2390.83 418.419Z" fill="#F5F5F5"/>
<path d="M2966.62 418.419C3022.2 418.419 3063.56 434.876 3090.72 467.79C3117.88 500.07 3131.46 549.124 3131.46 614.951V834.27C3131.46 855.157 3124.83 871.614 3111.56 883.64C3098.93 895.666 3081.56 901.679 3059.46 901.679C3037.35 901.679 3019.98 895.666 3007.35 883.64C2994.72 871.614 2988.41 855.157 2988.41 834.27V621.597C2988.41 589.95 2982.41 566.847 2970.4 552.289C2959.04 537.731 2941.04 530.452 2916.4 530.452C2886.72 530.452 2862.72 539.946 2844.4 558.935C2826.72 577.924 2817.88 603.242 2817.88 634.889V834.27C2817.88 855.157 2811.56 871.614 2798.93 883.64C2786.3 895.666 2768.93 901.679 2746.82 901.679C2724.72 901.679 2707.03 895.666 2693.77 883.64C2681.14 871.614 2674.82 855.157 2674.82 834.27V485.829C2674.82 466.207 2681.45 450.384 2694.72 438.357C2708.61 426.331 2726.3 420.318 2747.77 420.318C2767.35 420.318 2783.14 426.331 2795.14 438.357C2807.77 449.751 2814.09 464.625 2814.09 482.981V496.273C2830.51 470.955 2851.67 451.649 2877.56 438.357C2904.09 425.065 2933.77 418.419 2966.62 418.419Z" fill="#F5F5F5"/>
<path d="M3329.2 901.679C3308.36 901.679 3290.99 895.983 3277.1 884.589C3263.83 873.196 3257.2 856.423 3257.2 834.27V487.728C3257.2 465.574 3264.15 448.801 3278.04 437.408C3291.94 426.015 3308.99 420.318 3329.2 420.318C3349.41 420.318 3366.15 426.015 3379.41 437.408C3393.31 448.801 3400.26 465.574 3400.26 487.728V834.27C3400.26 856.423 3393.31 873.196 3379.41 884.589C3366.15 895.983 3349.41 901.679 3329.2 901.679ZM3329.2 344.364C3303.94 344.364 3284.04 338.034 3269.52 325.375C3254.99 312.083 3247.73 294.361 3247.73 272.207C3247.73 250.054 3254.99 232.648 3269.52 219.989C3284.04 207.33 3303.94 201 3329.2 201C3353.83 201 3373.41 207.646 3387.94 220.938C3403.1 233.597 3410.68 250.687 3410.68 272.207C3410.68 294.361 3403.41 312.083 3388.89 325.375C3374.36 338.034 3354.47 344.364 3329.2 344.364Z" fill="#F5F5F5"/>
<path d="M3943.68 790.596C3957.57 805.154 3964.52 820.978 3964.52 838.067C3964.52 855.157 3957.89 870.348 3944.62 883.64C3931.99 896.299 3917.15 902.629 3900.1 902.629C3883.04 902.629 3867.25 895.033 3852.73 879.842L3729.57 746.922L3607.36 879.842C3592.83 895.033 3577.04 902.629 3559.99 902.629C3542.3 902.629 3526.83 896.299 3513.56 883.64C3500.93 870.348 3494.62 854.841 3494.62 837.118C3494.62 820.661 3501.56 805.154 3515.46 790.596L3643.36 656.726L3523.99 532.351C3510.09 517.793 3503.14 502.286 3503.14 485.829C3503.14 468.106 3509.46 452.915 3522.09 440.256C3535.35 427.597 3550.51 421.268 3567.57 421.268C3585.25 421.268 3601.36 428.863 3615.88 444.054L3729.57 565.581L3844.2 444.054C3858.73 428.863 3874.83 421.268 3892.52 421.268C3909.57 421.268 3924.41 427.597 3937.04 440.256C3950.31 452.915 3956.94 468.106 3956.94 485.829C3956.94 502.286 3949.99 517.793 3936.1 532.351L3815.78 656.726L3943.68 790.596Z" fill="#F5F5F5"/>
<path d="M4423.31 757.366C4435.94 757.366 4446.05 762.43 4453.63 772.557C4461.84 782.684 4465.94 795.659 4465.94 811.483C4465.94 822.244 4462.78 832.371 4456.47 841.865C4450.15 850.726 4441.31 858.322 4429.94 864.651C4408.47 876.045 4383.52 885.539 4355.1 893.134C4326.68 900.097 4300.47 903.578 4276.47 903.578C4225.94 903.578 4181.73 893.767 4143.83 874.146C4106.57 854.524 4077.83 826.674 4057.62 790.596C4037.41 753.885 4027.3 710.844 4027.3 661.473C4027.3 614.002 4037.09 571.911 4056.67 535.199C4076.25 498.488 4103.41 470.005 4138.15 449.751C4172.89 428.863 4212.36 418.419 4256.57 418.419C4298.89 418.419 4335.84 427.914 4367.41 446.902C4399.63 465.258 4424.57 491.842 4442.26 526.654C4459.94 560.834 4468.78 601.026 4468.78 647.232C4468.78 661.157 4465.31 671.917 4458.36 679.513C4452.05 686.475 4442.89 689.956 4430.89 689.956H4165.62C4170.04 727.301 4181.41 754.518 4199.73 771.607C4218.04 788.064 4244.25 796.292 4278.36 796.292C4296.68 796.292 4313.1 794.077 4327.62 789.646C4342.15 785.216 4358.26 779.203 4375.94 771.607C4384.78 767.81 4393.31 764.645 4401.52 762.113C4409.73 758.948 4416.99 757.366 4423.31 757.366ZM4260.36 517.16C4233.2 517.16 4211.41 526.021 4194.99 543.744C4178.57 560.834 4168.78 585.836 4165.62 618.749H4348.47C4346.57 585.203 4338.05 559.884 4322.89 542.795C4308.36 525.705 4287.52 517.16 4260.36 517.16Z" fill="#F5F5F5"/>
<path d="M4865.93 418.419C4921.51 418.419 4962.88 434.876 4990.04 467.79C5017.2 500.07 5030.77 549.124 5030.77 614.951V834.27C5030.77 855.157 5024.14 871.614 5010.88 883.64C4998.25 895.666 4980.88 901.679 4958.77 901.679C4936.67 901.679 4919.3 895.666 4906.67 883.64C4894.04 871.614 4887.72 855.157 4887.72 834.27V621.597C4887.72 589.95 4881.72 566.847 4869.72 552.289C4858.35 537.731 4840.35 530.452 4815.72 530.452C4786.03 530.452 4762.03 539.946 4743.72 558.935C4726.03 577.924 4717.19 603.242 4717.19 634.889V834.27C4717.19 855.157 4710.88 871.614 4698.24 883.64C4685.61 895.666 4668.24 901.679 4646.14 901.679C4624.03 901.679 4606.35 895.666 4593.08 883.64C4580.45 871.614 4574.14 855.157 4574.14 834.27V485.829C4574.14 466.207 4580.77 450.384 4594.03 438.357C4607.93 426.331 4625.61 420.318 4647.08 420.318C4666.66 420.318 4682.45 426.331 4694.45 438.357C4707.09 449.751 4713.4 464.625 4713.4 482.981V496.273C4729.82 470.955 4750.98 451.649 4776.88 438.357C4803.4 425.065 4833.09 418.419 4865.93 418.419Z" fill="#F5F5F5"/>
<path d="M5415.15 797.242C5434.1 798.508 5447.99 803.255 5456.84 811.483C5465.68 819.712 5470.1 831.738 5470.1 847.562C5470.1 865.917 5462.84 879.842 5448.31 889.336C5433.78 898.831 5412.94 902.629 5385.78 900.73L5359.26 898.831C5248.73 889.969 5193.46 832.054 5193.46 725.085V537.098H5155.57C5134.73 537.098 5118.94 532.667 5108.2 523.806C5097.46 514.312 5092.09 501.02 5092.09 483.93C5092.09 466.207 5097.46 452.915 5108.2 444.054C5118.94 434.56 5134.73 429.813 5155.57 429.813H5193.46V355.757C5193.46 334.87 5199.78 318.413 5212.41 306.387C5225.68 294.361 5243.36 288.348 5265.47 288.348C5287.57 288.348 5304.94 294.361 5317.57 306.387C5330.2 318.413 5336.52 334.87 5336.52 355.757V429.813H5402.84C5445.78 429.813 5467.26 447.852 5467.26 483.93C5467.26 501.02 5461.89 514.312 5451.15 523.806C5440.42 532.667 5424.31 537.098 5402.84 537.098H5336.52V735.529C5336.52 754.518 5340.94 769.076 5349.78 779.203C5358.62 788.697 5371.57 794.077 5388.63 795.343L5415.15 797.242Z" fill="#F5F5F5"/>
<defs>
<linearGradient id="paint0_linear" x1="221.485" y1="485.072" x2="221.485" y2="687.546" gradientUnits="userSpaceOnUse">
<stop stop-color="#019EFF"/>
<stop offset="1" stop-color="#019AFF"/>
</linearGradient>
<linearGradient id="paint1_linear" x1="922.135" y1="485.072" x2="922.135" y2="687.546" gradientUnits="userSpaceOnUse">
<stop stop-color="#019EFF"/>
<stop offset="1" stop-color="#019AFF"/>
</linearGradient>
<linearGradient id="paint2_linear" x1="571.015" y1="523.703" x2="571.015" y2="989.821" gradientUnits="userSpaceOnUse">
<stop offset="0.359375" stop-color="#FFCE4F"/>
<stop offset="1" stop-color="#FF00E5"/>
</linearGradient>
<radialGradient id="paint3_radial" cx="0" cy="0" r="1" gradientUnits="userSpaceOnUse" gradientTransform="translate(571.81 611.977) rotate(90) scale(75.5686 75.5475)">
<stop stop-color="#483375"/>
<stop offset="1" stop-color="#221244"/>
</radialGradient>
<linearGradient id="paint4_linear" x1="571.81" y1="135.497" x2="571.81" y2="887.11" gradientUnits="userSpaceOnUse">
<stop stop-color="#4CC9F0"/>
<stop offset="1" stop-color="#0066FF"/>
</linearGradient>
<linearGradient id="paint5_linear" x1="571.81" y1="292.998" x2="571.81" y2="1045.5" gradientUnits="userSpaceOnUse">
<stop stop-color="#CC00FF"/>
<stop offset="1" stop-color="#7209B7"/>
</linearGradient>
</defs>
</svg>
